#!OML:ASF F:\VICON\USERDATA\INSTALL\rory3\rory3.ASF
:FULLY-SPECIFIED
:DEGREES
327
root 4.52731 17.0552 0.334232 10.8424 -0.479488 -0.426093
lowerback 0.818222 -2.90255 6.19742
upperback -1.82514 -3.74041 0.380856
thorax -2.71749 -1.98622 -2.93997
lowerneck -10.2346 1.5247 -2.08822
upperneck 47.7771 3.39217 -1.08435
head 20.7891 0.706328 0.440816
rclavicle 2.23633e-016 0
rhumerus -9.28947 1.20862 -33.6331
rradius 112.952
rwrist -55.6218
rhand 3.37055 -39.8995
rfingers 7.12502
rthumb 28.8146 -67.695
lclavicle 2.23633e-016 0
lhumerus 29.5426 15.6357 22.1134
lradius 91.3319
lwrist 57.6528
lhand -23.3666 -23.2123
lfingers 7.12502
lthumb 3.08907 6.74507
rfemur -48.0586 3.68408 14.0391
rtibia 70.2924
rfoot 5.4804 -4.9271
rtoes -19.6015
lfemur -26.4181 3.43609 -30.6416
ltibia 35.7145
lfoot -19.1719 8.96118
ltoes 12.0676
328
root 4.5178 17.0476 0.332851 10.8935 -0.513046 -0.632952
lowerback 0.862238 -2.87246 6.22797
upperback -1.79186 -3.69548 0.470166
thorax -2.6993 -1.96199 -2.86572
lowerneck -10.1704 1.57252 -2.01262
upperneck 47.7808 3.51082 -1.22274
head 20.7804 0.749697 0.377175
rclavicle 5.05162e-014 7.95139e-016
rhumerus -9.59575 1.51514 -34.089
rradius 112.957
rwrist -55.8469
rhand 2.96845 -40.4082
rfingers 7.12502
rthumb 28.4304 -68.2685
lclavicle 5.05162e-014 7.95139e-016
lhumerus 29.5253 15.1914 22.7122
lradius 91.3496
lwrist 57.5396
lhand -23.2632 -23.2866
lfingers 7.12502
lthumb 3.1889 6.66926
rfemur -48.346 3.92415 14.2989
rtibia 70.4714
rfoot 5.55076 -4.80869
rtoes -19.5174
lfemur -26.594 3.34086 -30.383
ltibia 35.7865
lfoot -19.0503 9.12152
ltoes 11.9082
329
root 4.51036 17.0437 0.332689 10.9213 -0.45153 -0.779824
lowerback 0.990658 -2.87211 6.22423
upperback -1.74836 -3.68541 0.54091
thorax -2.72047 -1.95545 -2.78577
lowerneck -10.3887 1.5814 -1.82065
upperneck 47.9842 3.58989 -1.44692
head 21.0222 0.77992 0.243103
rclavicle 1.64991e-014 -6.95746e-015
rhumerus -9.75189 1.69587 -34.633
rradius 113.015
rwrist -56.1965
rhand 2.39625 -40.5938
rfingers 7.12502
rthumb 27.8835 -68.5441
lclavicle 1.64991e-014 -6.95746e-015
lhumerus 29.4555 14.7753 23.2522
lradius 91.3609
lwrist 57.5328
lhand -23.065 -24.0259
lfingers 7.12502
lthumb 3.3803 5.92701
rfemur -48.5874 4.08773 14.4857
rtibia 70.5968
rfoot 5.74297 -4.3115
rtoes -19.4978
lfemur -26.7278 3.13815 -30.1752
ltibia 35.9345
lfoot -18.9953 9.29259
ltoes 11.7359
330
root 4.50343 17.0376 0.326449 10.9301 -0.411028 -0.875294
lowerback 1.25152 -2.88009 6.17367
upperback -1.74038 -3.6769 0.588057
thorax -2.85175 -1.95266 -2.69569
lowerneck -10.5599 1.51497 -1.72854
upperneck 48.0964 3.53107 -1.58993
head 21.174 0.751412 0.141304
rclavicle 3.76448e-014 -1.74931e-014
rhumerus -9.92837 2.03579 -35.1665
rradius 113.086
rwrist -56.1177
rhand 2.30472 -40.3885
rfingers 7.12502
rthumb 27.796 -68.3529
lclavicle 3.76448e-014 -1.74931e-014
lhumerus 29.3334 14.3199 23.7194
lradius 91.3983
lwrist 57.4997
lhand -23.0719 -25.8864
lfingers 7.12502
lthumb 3.37367 4.06663
rfemur -48.8264 4.27104 14.6113
rtibia 70.6997
rfoot 5.76421 -3.65399
rtoes -19.5028
lfemur -26.8543 2.97269 -30.06
ltibia 36.1145
lfoot -18.8366 9.64573
ltoes 10.851
331
root 4.50068 17.0345 0.320046 10.9102 -0.324906 -0.958134
lowerback 1.43931 -2.8643 6.22577
upperback -1.75179 -3.63987 0.589567
thorax -2.96941 -1.93838 -2.71438
lowerneck -10.3028 1.41659 -1.87612
upperneck 47.9227 3.33157 -1.44116
head 20.9452 0.674176 0.205908
rclavicle 2.71341e-014 -4.57205e-015
rhumerus -10.5603 2.63041 -35.4687
rradius 113.275
rwrist -55.7708
rhand 3.02281 -40.1148
rfingers 7.12502
rthumb 28.4824 -67.9664
lclavicle 2.71341e-014 -4.57205e-015
lhumerus 29.363 13.87 24.3893
lradius 91.6604
lwrist 57.5405
lhand -22.9664 -24.6343
lfingers 7.12502
lthumb 3.47554 5.31712
rfemur -48.944 4.35752 14.7181
rtibia 70.7989
rfoot 5.64493 -2.84089
rtoes -19.5774
lfemur -26.9014 2.88469 -30.0136
ltibia 36.2722
lfoot -18.623 10.0764
ltoes 9.37184
332
root 4.50164 17.0346 0.312514 10.9139 -0.195974 -0.943819
lowerback 1.54484 -2.87788 6.23663
upperback -1.76037 -3.64979 0.573821
thorax -3.04059 -1.9457 -2.73009
lowerneck -10.0682 1.42977 -1.9999
upperneck 47.7793 3.28292 -1.23537
head 20.7487 0.665904 0.324401
rclavicle -2.48481e-014 7.35503e-015
rhumerus -11.1021 3.26343 -35.8564
rradius 113.267
rwrist -55.6843
rhand 2.47035 -39.333
rfingers 7.12502
rthumb 27.9543 -67.2718
lclavicle -2.48481e-014 7.35503e-015
lhumerus 29.2327 13.3591 24.9433
lradius 91.911
lwrist 57.522
lhand -23.3978 -23.6642
lfingers 7.12502
lthumb 3.05898 6.29363
rfemur -49.0799 4.33644 14.7061
rtibia 70.891
rfoot 5.67297 -1.85364
rtoes -20.3634
lfemur -26.9483 2.72305 -30.0603
ltibia 36.4142
lfoot -18.5873 10.2841
ltoes 8.70147
333
root 4.49752 17.0276 0.296804 11.0032 -0.114247 -0.798255
lowerback 1.64537 -2.93849 6.01313
upperback -1.72822 -3.73136 0.559091
thorax -3.05724 -1.98147 -2.61253
lowerneck -10.0594 1.51819 -1.99684
upperneck 47.7381 3.38702 -1.15821
head 20.7104 0.717376 0.383405
rclavicle -2.20899e-014 -7.7526e-015
rhumerus -11.2256 3.64967 -36.4543
rradius 113.156
rwrist -55.7552
rhand 1.24238 -38.6137
rfingers 7.12502
rthumb 26.7798 -66.738
lclavicle -2.20899e-014 -7.7526e-015
lhumerus 28.9394 12.9487 25.2813
lradius 92.0812
lwrist 57.4928
lhand -24.4734 -25.056
lfingers 7.12502
lthumb 2.02016 4.9142
rfemur -49.453 4.39453 14.547
rtibia 70.9983
rfoot 5.86165 -1.11038
rtoes -21.2069
lfemur -27.1901 2.46744 -30.1924
ltibia 36.5596
lfoot -18.53 10.4257
ltoes 8.41454
